<svg width="602" height="778" viewBox="0 0 602 778" fill="none" xmlns="http://www.w3.org/2000/svg">
<path d="M601 284.144L594.912 283.164L587.645 295.713L577.727 298.458L580.084 302.674L576.156 306.89L572.228 308.361L569.773 323.851L568.791 329.734L562.899 328.067L559.855 331.008L570.657 339.44L567.122 343.754L571.639 348.558L567.613 349.538L574.781 357.774L557.989 358.558V381.696L547.383 391.5L556.909 394.147L548.562 399.834L548.464 412.971L552.883 421.893L541.393 439.05L531.77 439.737L542.768 454.345L543.652 472.188L548.562 479.64L559.953 482.385L538.054 491.012L538.349 502.581L552.49 502.973L558.382 522.484L562.899 523.954L559.658 529.151L562.703 539.249L554.552 548.857L544.732 543.759L534.126 548.269L532.653 555.034L524.012 555.426L525.779 570.132L516.941 570.426L513.013 578.368L524.405 583.662L514.781 591.309L503.979 591.701L486.303 605.133L488.071 616.996L500.149 624.643L497.891 640.036L491.017 647.487L491.606 662.879L465.878 662.781L464.994 654.84C464.994 654.84 443.193 644.055 434.159 638.369C433.668 636.898 432.686 630.428 432.686 630.428L418.938 625.526L411.18 629.153L410.198 629.055L392.13 627.879L391.049 634.741C383.783 626.898 370.035 639.055 370.035 639.055L361.295 640.918L365.91 655.232L357.17 659.938L371.508 672.292L367.481 692.978L375.73 705.822L368.365 710.43L368.267 717.783L361.982 723.175L360.706 739.548L344.306 747.195C344.306 747.195 346.074 751.411 344.895 759.451C337.138 767 325.943 777 325.943 777L311.016 775.627L302.768 763.764L296.778 763.568L295.992 769.647C295.992 769.647 287.94 764.745 286.663 763.96L284.699 760.725L280.869 764.549L286.368 767.882L283.717 774.745C264.175 765.529 239.625 765.725 239.625 765.725L233.831 771.804L222.539 765.823L215.37 741.313C215.37 741.313 212.326 741.509 208.398 741.411L209.871 733.371L208.3 719.744L223.815 712.096L224.994 705.626L230.787 705.92L225.779 700.527L221.655 702.782C221.655 702.782 216.941 693.272 215.468 690.135L211.246 690.723L210.853 681.213L204.764 680.135L202.309 684.743L197.105 681.605L191.606 670.527L190.918 660.134L186.597 656.703L187.481 637.781L189.151 635.33L183.357 637.095L178.938 632.389L184.339 624.839L191.409 631.898L203.979 604.251L212.031 603.858C219.298 591.603 205.452 578.171 205.452 578.171L198.381 579.348L191.507 575.23L175.403 543.072L148.005 544.543L141.818 550.818L139.167 545.72L115.403 547.386V527.484C117.367 526.602 123.259 523.464 123.259 523.464L120.313 519.248L130.231 507.483L123.946 503.562L122.08 489.934L115.403 491.601L108.43 485.718C106.957 485.62 91.9328 481.698 91.9328 481.698L93.504 474.836C90.9508 468.169 79.9524 455.717 79.9524 455.717L68.954 456.11L60.6071 434.933L54.3223 438.462L53.6349 431.893L44.9933 424.148L44.6987 416.403L39.2977 411.501L36.5481 409.05L35.3697 397.873L29.3795 389.441L34.5841 380.519L26.6299 365.029L37.8247 364.735L47.9393 354.342L35.5661 354.734L37.9229 348.264L33.8967 347.773C35.9589 344.048 38.4139 336.499 38.4139 336.499L34.4859 320.322L21.1307 307.576L21.3271 298.36L15.7297 294.635L1.39258 283.85L11.6054 269.34L25.8443 258.85L25.1569 243.849L36.5481 241.986L36.1553 231.3L56.4827 236.202L78.774 222.868L80.1488 197.77L72.7838 196.201L57.5629 205.417L50.5907 205.907L48.9213 198.946L61.0981 189.73V181.103L77.792 188.652C77.792 188.652 81.6218 181.789 82.8984 180.122L78.283 181.887L78.5776 178.357L90.9508 169.436L93.6022 153.063L103.717 144.337L103.226 138.553L105.484 135.709L109.02 131.297L106.172 120.415L93.995 113.748C94.486 112.964 95.468 111.101 96.5482 109.238C98.1194 106.297 99.887 103.061 99.887 103.061L94.8788 100.022L98.7086 91.1003L85.5498 67.4723L94.0932 59.5309L110.689 57.0799L108.332 49.5306L115.01 53.2562L113.733 40.8049L106.761 39.9226L106.466 35.4126L101.065 41.3932L93.6022 32.4714L99.396 31.0988L98.6104 22.3731L102.931 21.4907L110.002 20.9025L112.948 15.8043L108.921 6.29425L121.786 1L170.394 35.3146L257.596 146.102L280.28 202.574L294.519 210.417L315.926 195.417L348.823 182.867L381.917 175.71L384.666 188.162L409.118 209.339L435.141 209.535L437.694 213.652L439.069 220.417L440.542 214.927L444.863 216.398L448.987 217.868L448.398 207.084L458.414 201.103L462.637 199.338L459.986 195.907L471.573 176.495L480.804 163.063L483.357 165.71L487.874 161.886L488.758 166.102L495.927 157.573L506.63 152.867L517.138 137.768L529.02 144.827L527.743 150.121L533.635 154.043L531.573 168.455L541.197 175.906L541.099 181.299L547.383 190.024L551.508 206.103L548.169 212.28L558.971 235.026L556.614 244.634L577.531 250.418L580.673 259.438L588.824 258.654L589.118 277.38L596.385 276.595L601 284.144Z" stroke="#203A8F" stroke-miterlimit="10"/>
<path d="M337.528 343.558L338.51 352.676L334.779 362.186C334.779 362.186 328.298 355.519 326.039 355.323C321.424 354.93 317.496 359.048 317.496 359.048C317.496 359.048 310.327 352.283 306.595 350.224C300.409 346.891 290.196 346.009 281.751 349.734C281.751 349.734 272.422 342.871 267.414 339.832C268.199 336.989 269.869 331.4 269.869 331.4L273.207 334.734C279.296 326.891 272.913 321.596 272.913 321.596L260.54 321.792L258.477 317.675C258.477 317.675 239.525 315.028 233.633 318.851C230.392 320.91 211.538 330.224 211.538 330.224L184.926 318.263L191.014 298.36L185.122 292.282C185.122 292.282 180.016 298.753 167.25 296.694C167.839 293.164 167.25 287.184 167.25 287.184L160.67 269.438L152.716 271.987C152.716 271.987 155.662 263.654 135.826 265.811L130.327 262.281L125.515 249.928L128.756 244.438L132.389 240.418L124.631 238.163L117.954 240.418L130.327 210.221L127.97 190.613L120.016 149.729L113.142 145.023L115.106 139.239L105.384 135.709L108.919 131.297L106.071 120.415L93.8946 113.748C95.073 111.689 99.7866 103.061 99.7866 103.061L94.7784 100.022L98.6082 91.1003L85.4495 67.4723L93.9928 59.5309L110.589 57.0798L108.232 49.5306L114.909 53.2562L113.633 40.8049L106.661 39.9226L106.366 35.4126L100.965 41.3932L93.5018 32.4714L99.2956 31.0988L98.51 22.3731L102.831 21.4907L109.901 20.9025L112.847 15.8043L108.821 6.29425L121.685 1L170.294 35.3146L257.495 146.102L280.18 202.574L297.757 250.026L291.865 278.458L339.001 340.028L337.528 343.558Z" fill="#D9D9D9" stroke="#203A8F" stroke-miterlimit="10"/>
<path d="M600.708 284.047L594.619 283.164L587.352 295.714L577.434 298.459L579.693 302.675L575.765 306.89L571.837 308.361L569.382 323.852L568.4 329.734L562.508 328.067L559.464 331.009L570.266 339.44L566.829 343.754L571.248 348.558L567.32 349.539L574.488 357.774L557.598 358.558V381.892L546.894 391.696L556.42 394.344L550.233 398.559H504.079L502.41 409.736L491.313 408.069V430.423L485.519 431.894L482.966 440.619L477.172 435.129L475.699 425.717L482.966 421.795L480.413 409.736L466.468 413.364V413.266L449.382 387.481H424.537L420.413 368.559L435.045 341.499L420.216 337.675L417.27 329.636L408.727 331.695L406.174 335.028L385.65 340.715L383.391 350.225L371.116 350.421L366.697 348.95L360.216 348.362L361.493 357.872L358.94 363.264L356.387 359.441L350.691 348.166H345.879L342.737 342.774L339.202 340.126L292.066 278.556L297.958 250.124L280.38 202.672L294.619 210.515L316.026 195.515L348.923 182.966L382.017 175.809L384.766 188.26L409.218 209.437L435.241 209.633L437.794 213.751L439.169 220.516L440.642 215.025L444.963 216.496V216.594L448.989 217.869L448.4 207.084L458.416 201.103L462.639 199.437L459.987 196.005L471.575 176.495L480.806 163.063L483.359 165.71L487.876 161.985L488.76 166.103L495.928 157.671L506.632 152.965L516.747 137.67L528.629 144.729L527.352 150.024L533.343 153.945L531.182 168.357L540.806 175.711L540.708 181.103L546.992 189.829L551.117 205.907L547.778 212.182L558.58 234.928L556.223 244.536L577.14 250.222L580.38 259.34L588.433 258.556L588.727 277.282L595.994 276.497L600.708 284.047Z" fill="#D9D9D9" stroke="#203A8F" stroke-miterlimit="10"/>
<path d="M273.21 433.167L283.914 428.952L282.932 438.364L239.429 441.305L237.269 447.383L222.244 456.992V461.501L219.887 464.541L212.031 459.148L200.051 463.462L195.927 469.345L188.071 467.384L186.794 453.168L181.982 451.305L169.118 455.031L164.601 478.463L166.074 499.542L162.146 502.385L166.074 508.659L160.182 511.895H154.486L151.246 515.326L155.566 525.523H152.326L148.594 522.483L143.39 525.523L139.953 524.052L133.668 527.974H124.732L123.062 523.562L120.116 519.346L130.035 507.581L123.75 503.659L121.884 490.032L115.206 491.698L108.234 485.816C106.663 485.62 91.7366 481.698 91.7366 481.698L93.3078 474.835C90.7546 468.168 79.7562 455.717 79.7562 455.717L68.7579 456.109L60.4109 434.932L54.1261 438.462L53.4387 431.893L44.7971 424.148L44.5025 416.402L39.1997 411.598L36.4501 409.147L35.2717 397.97L29.2815 389.539L34.4861 380.617L26.4337 365.028L37.6285 364.734L47.7431 354.342L35.3699 354.734L37.7267 348.361L33.7005 347.871C35.7627 344.146 38.2177 336.596 38.2177 336.596L34.2897 320.419L20.9346 307.674L21.131 298.458L15.5336 294.732L1 283.85L11.2128 269.242L25.4518 258.751L24.7644 243.751L36.1555 241.888L35.7627 231.201L56.0901 236.104L78.3814 222.77L79.7562 197.671L72.3913 196.103L57.1703 205.318L50.1981 205.809L48.5287 198.848L60.7055 189.632V181.004L77.3994 188.553C77.3994 188.553 81.2292 181.69 82.5058 180.024L77.8904 181.788L78.185 178.259L90.5582 169.337L93.2096 152.964L103.324 144.239L102.833 138.454L105.092 135.611L114.814 139.14L112.85 144.925L119.724 149.631L127.678 190.514L130.035 210.123L117.661 240.319L124.339 238.064L132.097 240.319L128.463 244.339L125.223 249.829L130.035 262.183L135.534 265.712C155.37 263.555 152.424 271.889 152.424 271.889L160.378 269.34L167.056 287.183C167.056 287.183 167.645 293.164 167.056 296.693C179.822 298.752 184.928 292.281 184.928 292.281L190.82 298.36L184.732 318.263L211.344 330.224C211.344 330.224 230.297 320.91 233.439 318.851C239.331 315.027 258.283 317.674 258.283 317.674L260.346 321.792L272.719 321.596C272.719 321.596 279.102 326.89 273.013 334.734L269.675 331.4C269.675 331.4 268.103 337.087 267.22 339.832C272.228 342.871 281.557 349.734 281.557 349.734L262.899 356.891L254.454 353.361L251.213 366.303V376.303L262.506 378.852L261.524 384.343H266.336L285.878 398.657L275.174 401.5L272.915 420.226L267.121 425.716L273.21 433.167Z" fill="#D9D9D9" stroke="#203A8F" stroke-miterlimit="10"/>
<path d="M375.241 706.022L367.876 710.63L367.777 717.984L361.493 723.376L360.314 739.749L353.342 742.886L353.146 742.592L344.013 746.808C344.013 746.808 345.781 751.024 344.602 759.063C336.844 766.612 325.65 776.612 325.65 776.612L310.723 775.24L302.474 763.377L296.386 763.181L295.601 769.259C295.601 769.259 287.548 764.357 286.272 763.573L284.308 760.338L280.478 764.161L285.977 767.495L283.326 774.357C263.784 765.142 239.234 765.338 239.234 765.338L233.538 771.416L222.245 765.436L215.077 740.925C215.077 740.925 212.032 741.121 208.104 741.023L209.577 732.984L208.006 719.356L223.522 711.709L224.7 705.238L230.494 705.532L225.486 700.14L221.361 702.395C221.361 702.395 216.648 692.885 215.175 689.748L210.952 690.336L210.559 680.826L204.471 679.747L202.016 684.355L196.811 681.218L191.312 670.139L190.625 659.747L186.304 656.315L187.188 637.393L188.857 634.942L183.064 636.707L178.645 632.001L184.046 624.55L191.116 631.609L203.685 603.961L211.738 603.569C219.005 591.314 205.158 577.882 205.158 577.882L234.226 576.215L241.689 565.038L247.875 564.646L258.383 559.352L270.952 571.411L280.576 574.254L284.7 582.098L280.38 596.412L285.977 609.353L281.853 625.726L285.977 632.589L274.586 639.452L260.936 657.688H255.83L257.597 662.982L261.918 668.57L267.221 680.728H283.129L284.897 687.296L284.406 700.238H299.332L306.893 710.14L304.635 713.179L314.553 721.317L318.383 717.003L314.062 712.689L316.124 709.16L320.15 704.748V704.65L319.365 687.689L322.9 685.532L328.694 689.355L338.416 688.963V678.277L356.583 660.041L371.018 672.492L366.992 693.179L375.241 706.022Z" fill="#D9D9D9" stroke="#203A8F" stroke-miterlimit="10"/>
<path d="M454.779 509.35L457.823 501.409L456.252 467.094L445.253 458.368L447.316 451.701C438.772 453.172 434.451 461.996 434.451 461.996L433.666 468.957C433.666 468.957 434.157 469.447 429.541 470.329C424.828 461.702 417.168 462.388 417.168 462.388L413.535 469.643L405.09 471.604L393.502 462.388L391.538 455.917L386.235 453.564V448.172L381.718 441.015L371.014 434.446V430.132L366.006 430.328V432.093C366.006 432.093 361.784 432.485 361.293 432.093C360.703 431.701 359.82 429.936 359.82 429.936L354.713 427.975L349.607 432.093L347.054 448.074L347.026 448.152L328.494 442.584L324.272 445.231L317.79 442.584V436.211H303.846L300.704 445.427L295.695 444.153L292.455 448.859L288.429 447.388V437.388L282.733 438.564L239.231 441.505L237.07 447.584L222.046 457.192V461.702L219.689 464.741L211.833 459.349L199.852 463.663L195.728 469.545L187.872 467.585L186.595 453.369L181.784 451.506L168.92 455.231L164.402 478.663L165.875 499.742L161.947 502.585L165.875 508.86L159.983 512.095H154.288L151.047 515.527L155.368 525.723H152.127L148.396 522.684L143.191 525.723L139.754 524.253L133.469 528.174H124.533L122.864 523.762C122.864 523.762 116.972 526.9 115.008 527.782V547.685L138.772 546.018L141.424 551.116L147.61 544.841L175.008 543.371L191.113 575.528L197.987 579.646L205.057 578.47L234.124 576.803L241.587 565.626L247.774 565.136L258.281 559.842L270.851 571.901L280.474 574.744L284.206 536.312L280.474 532.978L289.018 530.92L285.875 525.919L290.491 526.115L294.222 530.821L305.123 536.214L303.159 543.469L305.908 546.41L303.159 551.606L319.165 554.646L324.173 552.881L326.923 560.43L336.154 565.822L338.118 562.391L341.162 563.665L345.188 560.626L341.555 555.038L343.126 551.018L340.376 545.43L348.134 540.43L355.303 544.645L359.329 542.292L361.391 536.214L359.722 534.057H355.99L353.732 526.704L356.579 523.468L355.828 516.529L365.024 522.389L371.702 519.546L372.487 514.35L376.415 512.683L378.87 513.762L384.959 510.232V507.389L387.315 505.428H389.574L391.538 504.056V501.409H395.368L398.805 497.389L406.072 498.859L409.509 504.35L415.597 504.546V500.526L421.784 501.016L424.14 505.428L427.97 506.017L430.818 507.977L432.291 506.409L436.121 506.605L438.674 511.801L454.779 509.35Z" fill="#D9D9D9" stroke="#203A8F" stroke-miterlimit="10"/>
<path d="M466.27 413.465V434.936L450.166 442.584L447.318 451.506C438.774 452.976 434.454 461.8 434.454 461.8L433.668 468.761C433.668 468.761 434.159 469.251 429.544 470.133C424.83 461.506 417.17 462.192 417.17 462.192L413.537 469.447L405.092 471.408L393.504 462.192L391.54 455.721L386.237 453.368V447.976L381.72 440.819L371.017 434.25V429.936L366.008 430.132V431.897C366.008 431.897 361.884 432.289 361.295 431.897C360.804 431.505 359.822 429.74 359.822 429.74L354.715 427.779L349.609 431.897L347.056 447.878L328.594 442.29L324.372 444.937L317.89 442.29V435.917H303.946L300.804 445.133L295.795 443.858L292.555 448.564L288.529 447.094V437.093L282.833 438.27L283.815 428.858L273.111 433.074L267.318 425.623L273.111 420.132L275.37 401.406L286.074 398.563L266.532 384.347H261.72L262.702 378.857L251.409 376.308V366.307L254.65 353.366L263.095 356.895L281.753 349.738C285.583 348.072 289.707 347.287 293.733 347.287C298.643 347.287 303.16 348.366 306.597 350.228C310.329 352.189 317.498 359.052 317.498 359.052C317.498 359.052 321.426 354.934 326.041 355.327C328.3 355.523 334.781 362.19 334.781 362.19L338.512 352.679L337.53 343.562L339.102 340.228L342.735 342.777L345.779 348.17H350.689L356.385 359.444L358.84 363.268L361.491 357.876L360.215 348.366L366.598 348.856L371.017 350.425L383.292 350.13L385.648 340.62L406.172 334.934L408.725 331.601L417.17 329.444L420.116 337.483L434.945 341.307L420.313 368.366L424.437 387.288H449.282L466.27 413.465Z" fill="#D9D9D9" stroke="#203A8F" stroke-miterlimit="10"/>
<path d="M327.43 393.024V383.408H322.07L321.974 386.128C321.942 386.971 321.888 387.781 321.814 388.56C321.75 389.328 321.643 390.021 321.494 390.64C321.355 391.248 321.163 391.744 320.918 392.128C320.683 392.512 320.374 392.736 319.99 392.8L318.694 392.56C319.12 392.581 319.472 392.427 319.75 392.096C320.038 391.765 320.256 391.301 320.406 390.704C320.566 390.107 320.683 389.408 320.758 388.608C320.832 387.808 320.886 386.944 320.918 386.016L321.046 382.384H328.598V393.024H327.43ZM318.278 396.096L318.294 392.56H330.278V396.096H329.174V393.584H319.398L319.382 396.096H318.278ZM332.421 393.584V385.184H333.573L337.381 391.632H336.901L340.773 385.184H341.829V393.584H340.789V386.48L340.997 386.576L337.381 392.56H336.869L333.221 386.512L333.461 386.464V393.584H332.421ZM345.061 393.584V385.184H346.197V391.856L351.813 385.184H352.821V393.584H351.685V386.896L346.085 393.584H345.061ZM357.677 393.584V385.872L357.965 386.176H354.493V385.184H361.997V386.176H358.525L358.813 385.872V393.584H357.677ZM367.975 393.664C367.25 393.664 366.594 393.499 366.007 393.168C365.421 392.827 364.951 392.341 364.599 391.712C364.258 391.072 364.087 390.293 364.087 389.376C364.087 388.459 364.258 387.685 364.599 387.056C364.941 386.416 365.405 385.931 365.991 385.6C366.578 385.269 367.239 385.104 367.975 385.104C368.775 385.104 369.49 385.285 370.119 385.648C370.759 386 371.261 386.501 371.623 387.152C371.986 387.792 372.167 388.533 372.167 389.376C372.167 390.229 371.986 390.976 371.623 391.616C371.261 392.256 370.759 392.757 370.119 393.12C369.49 393.483 368.775 393.664 367.975 393.664ZM363.639 396.688V385.184H364.727V387.712L364.615 389.392L364.775 391.088V396.688H363.639ZM367.895 392.656C368.493 392.656 369.026 392.523 369.495 392.256C369.965 391.979 370.338 391.595 370.615 391.104C370.893 390.603 371.031 390.027 371.031 389.376C371.031 388.725 370.893 388.155 370.615 387.664C370.338 387.173 369.965 386.789 369.495 386.512C369.026 386.235 368.493 386.096 367.895 386.096C367.298 386.096 366.759 386.235 366.279 386.512C365.81 386.789 365.437 387.173 365.159 387.664C364.893 388.155 364.759 388.725 364.759 389.376C364.759 390.027 364.893 390.603 365.159 391.104C365.437 391.595 365.81 391.979 366.279 392.256C366.759 392.523 367.298 392.656 367.895 392.656ZM378.064 393.664C377.254 393.664 376.523 393.483 375.872 393.12C375.232 392.747 374.726 392.24 374.352 391.6C373.979 390.949 373.792 390.208 373.792 389.376C373.792 388.533 373.979 387.792 374.352 387.152C374.726 386.512 375.232 386.011 375.872 385.648C376.512 385.285 377.243 385.104 378.064 385.104C378.896 385.104 379.632 385.285 380.272 385.648C380.923 386.011 381.43 386.512 381.792 387.152C382.166 387.792 382.352 388.533 382.352 389.376C382.352 390.208 382.166 390.949 381.792 391.6C381.43 392.24 380.923 392.747 380.272 393.12C379.622 393.483 378.886 393.664 378.064 393.664ZM378.064 392.656C378.672 392.656 379.211 392.523 379.68 392.256C380.15 391.979 380.518 391.595 380.784 391.104C381.062 390.603 381.2 390.027 381.2 389.376C381.2 388.715 381.062 388.139 380.784 387.648C380.518 387.157 380.15 386.779 379.68 386.512C379.211 386.235 378.678 386.096 378.08 386.096C377.483 386.096 376.95 386.235 376.48 386.512C376.011 386.779 375.638 387.157 375.36 387.648C375.083 388.139 374.944 388.715 374.944 389.376C374.944 390.027 375.083 390.603 375.36 391.104C375.638 391.595 376.011 391.979 376.48 392.256C376.95 392.523 377.478 392.656 378.064 392.656ZM384.78 393.584V385.184H388.492C389.441 385.184 390.188 385.365 390.732 385.728C391.287 386.091 391.564 386.624 391.564 387.328C391.564 388.011 391.303 388.539 390.78 388.912C390.257 389.275 389.569 389.456 388.716 389.456L388.94 389.12C389.943 389.12 390.679 389.307 391.148 389.68C391.617 390.053 391.852 390.592 391.852 391.296C391.852 392.021 391.585 392.587 391.052 392.992C390.529 393.387 389.713 393.584 388.604 393.584H384.78ZM385.884 392.688H388.556C389.271 392.688 389.809 392.576 390.172 392.352C390.545 392.117 390.732 391.744 390.732 391.232C390.732 390.72 390.567 390.347 390.236 390.112C389.905 389.877 389.383 389.76 388.668 389.76H385.884V392.688ZM385.884 388.912H388.412C389.063 388.912 389.559 388.789 389.9 388.544C390.252 388.299 390.428 387.941 390.428 387.472C390.428 387.003 390.252 386.651 389.9 386.416C389.559 386.181 389.063 386.064 388.412 386.064H385.884V388.912Z" fill="#303030"/>
<circle cx="356" cy="406" r="5" fill="#203A8F"/>
<path d="M438.676 511.801L454.977 509.35L458.021 501.409L456.45 466.898L445.452 458.172L450.362 442.584L466.466 434.936V413.563L480.411 409.936L482.964 421.897L475.697 425.818L477.17 435.23L482.964 440.623L485.517 431.897L491.311 430.426V407.975L502.408 409.74L504.077 398.465H550.329L548.071 400.034L547.972 413.171L552.391 422.093L540.902 439.25L531.278 439.936L542.277 454.545L543.161 472.388L548.071 479.839L559.462 482.585L537.563 491.212L537.858 502.781L551.999 503.173L557.891 522.684L562.408 524.154L559.069 529.449L562.113 539.547L553.963 549.155L544.143 544.057L533.537 548.567L532.064 555.332L523.422 555.724L525.19 570.43L516.352 570.724L512.424 578.665L523.815 583.96L514.192 591.607L503.39 591.999L485.714 605.431L487.481 617.294L499.56 624.941L497.301 640.334L490.427 647.785L491.016 663.177L465.288 663.079L464.404 655.138C464.404 655.138 442.604 644.353 433.57 638.667C433.079 637.196 432.097 630.726 432.097 630.726L418.349 625.824L410.591 629.451L409.609 629.353V629.255L391.54 628.078L390.46 634.941C383.193 627.098 369.445 639.255 369.445 639.255L360.705 641.118L361.295 629.549L375.337 589.254L365.615 591.999L348.529 589.45L344.601 597.882L340.28 597.097L334.584 600.235L315.632 599.058L285.975 609.647L280.378 596.705L284.699 582.391L280.476 574.548L284.208 536.213L280.476 532.88L289.019 530.919L285.975 525.919L290.591 526.115L294.322 530.919L305.124 536.213L303.16 543.469L305.91 546.41L303.16 551.606L319.167 554.645L324.175 552.88L326.925 560.43L336.155 565.822L338.119 562.391L341.164 563.665L345.19 560.626L341.556 555.037L343.128 551.018L340.378 545.429L348.136 540.429L355.304 544.645L359.331 542.292L361.393 536.213L359.723 534.057H355.992L353.733 526.703L356.581 523.468L355.894 516.311L365.124 522.095V522.193L371.802 519.35L372.588 514.154L376.417 512.487L378.872 513.566L384.961 510.036V507.193L387.317 505.232H389.674L391.638 503.86V501.213H395.468L398.905 497.193L406.172 498.663L409.609 504.154L415.697 504.35V500.33L421.884 500.82L424.241 505.232L428.07 505.82L430.918 507.781L432.391 506.213L436.221 506.409L438.676 511.801Z" fill="#D9D9D9" stroke="#203A8F" stroke-miterlimit="10"/>
<path d="M360.704 641.021L365.319 655.335L356.579 660.041L338.412 678.276V688.963L328.69 689.355L322.897 685.532L319.361 687.688L320.147 704.65L316.121 709.16L314.059 712.689L318.379 717.003L314.55 721.317L304.631 713.179L306.988 710.14L299.329 700.336H284.402L284.893 687.394L283.126 680.826H267.217L261.816 668.668L257.594 663.08L255.826 657.786H260.834L274.582 639.648L285.973 632.785L281.849 625.922L285.973 609.647L315.63 599.059L334.582 600.235L340.278 597.098L344.599 597.882L348.527 589.451L365.614 592L375.335 589.255L361.391 629.452L360.704 641.021Z" fill="#D9D9D9" stroke="#203A8F" stroke-miterlimit="10"/>
</svg>
