<svg width="30" height="35" viewBox="0 0 30 35" fill="none" xmlns="http://www.w3.org/2000/svg">
<path d="M1 13.0111C1.91638 6.23171 7.83425 1 15 1C22.1648 1 28.0836 6.23171 29 13.0111M9.37504 6.29743C11.0039 5.28998 12.9322 4.70748 15 4.70748C17.1652 4.70748 19.1779 5.3458 20.8527 6.44237M29 22.6768V26.2582C29 29.0798 26.6668 31.3675 23.7891 31.3675H17.3901M17.3901 31.3675C17.3901 32.8214 16.188 34 14.7052 34C13.2224 34 12.0204 32.8214 12.0204 31.3675C12.0204 29.9136 13.2224 28.735 14.7052 28.735C16.188 28.735 17.3901 29.9136 17.3901 31.3675ZM3.23401 26.3915C1.99993 26.3915 1 25.411 1 24.201V17.3055H3.82258C4.73161 17.3055 5.46893 18.0285 5.46893 18.9198V24.201C5.46893 25.411 4.46808 26.3915 3.23401 26.3915ZM26.766 26.3915C28.0001 26.3915 29 25.411 29 24.201V17.3055H26.1774C25.2684 17.3055 24.5311 18.0285 24.5311 18.9198V24.201C24.5311 25.411 25.5319 26.3915 26.766 26.3915Z" stroke="#203A8F" stroke-width="2" stroke-miterlimit="10" stroke-linecap="round" stroke-linejoin="round"/>
</svg>
