<svg width="203" height="45" viewBox="0 0 203 45" fill="none" xmlns="http://www.w3.org/2000/svg">
<path d="M70.9997 11.0789C66.6427 13.3045 62.7849 13.8043 58.7941 12.6848C56.1712 11.9518 53.7414 10.7424 51.2551 9.67287C47.6436 8.1136 43.736 6.70093 39.3191 7.22735C47.1743 8.8366 51.3216 13.3478 57.5858 15.6301C55.9349 16.6962 54.2407 17.2127 52.4167 17.3559C50.383 17.5125 48.4391 17.0627 46.5885 16.2764C44.425 15.3602 42.2681 14.3873 40.1013 13.3012C38.6201 12.5582 35.9473 11.9785 34.2897 11.7985C38.72 13.8143 42.5677 17.7524 47.3141 18.9419C45.8662 20.3012 44.0888 20.6244 42.3746 20.6544C40.6838 20.6844 38.9796 20.4078 37.4452 19.6782C35.5379 18.7719 33.7206 17.7257 31.8133 16.8295C30.7649 16.3364 29.2304 15.7067 27.5795 15.8566C30.5685 17.1793 33.401 19.6615 35.7343 21.9171C32.0963 22.3403 28.9442 21.8005 27.4164 21.2474C27.4564 24.6392 35.3449 32.6421 36.3368 33.1052C33.208 32.8253 21.6781 29.7201 14.0026 18.0189C13.2371 16.8528 12.4049 15.7367 11.6294 14.5806C10.4544 12.828 9.1297 11.8019 7.27906 11.5353C6.48023 11.4187 5.25201 11.8552 4.67285 12.1684C4.77603 11.2921 5.34853 10.146 6.06083 9.58625C6.88962 8.93655 8.00133 8.59671 9.40928 8.55673C11.9057 8.4901 14.6051 9.15644 17.0149 9.68286C19.701 10.2693 21.6714 9.70618 23.9515 8.03697C28.0122 5.06836 32.4824 2.77612 37.3087 1.22684C44.5781 -1.10539 51.315 -0.145844 57.4893 4.39202C58.9405 5.46818 65.6807 11.7852 70.9997 11.0789Z" fill="#203A8F"/>
<path d="M63.7075 20.2312C59.3472 22.7267 57.1637 27.8476 54.1714 31.2494C47.8972 38.3827 39.7158 34.781 39.4961 34.6178C42.0757 34.4412 48.3599 34.781 52.6237 29.1903C53.5856 27.9276 54.4843 26.4816 55.4695 25.2355C58.1023 21.9104 61.8569 20.0246 63.7075 20.2312Z" fill="#02ACFF"/>
<path d="M10.875 35.5342C10.875 35.542 10.875 35.542 10.875 35.5459L10.8672 35.5342C10.8711 35.5342 10.8711 35.5342 10.875 35.5342Z" fill="#A4D963"/>
<path d="M10.8753 35.5342C10.8713 35.5382 10.8713 35.5342 10.8672 35.5342C10.8713 35.5342 10.8713 35.5342 10.8753 35.5342Z" fill="#A4D963"/>
<path d="M10.875 35.5342C10.875 35.542 10.875 35.542 10.875 35.5459L10.8672 35.5342C10.8711 35.5342 10.8711 35.5342 10.875 35.5342Z" fill="#A4D963"/>
<path d="M46.9017 41.0386C42.0654 42.0682 36.8963 40.8054 32.3529 39.1695C28.8613 37.9134 25.8058 36.0843 22.444 34.5317C18.1869 32.5693 13.6202 31.1899 8.85377 31.6764C4.45351 32.1262 1.27481 33.9686 0 34.5184C1.36468 32.7692 9.05681 27.0785 19.901 30.4003C27.2237 32.6426 33.8574 37.4104 42.4416 38.2566C55.1031 39.5027 59.307 28.268 60.5519 27.0186C60.4587 28.7178 57.716 38.7364 46.9017 41.0386Z" fill="#0259DB"/>
<path d="M43.7062 43.8534C41.6159 45.8425 34.3898 44.6764 33.5044 44.5031C27.0138 43.2337 20.1556 39.3671 18.0369 38.246C15.9182 37.125 10.5611 34.841 4.84277 35.2908C7.88501 33.6349 14.016 34.1532 17.206 35.4304C20.396 36.7077 32.3194 42.7772 36.6065 43.3403C39.965 43.7834 41.2947 43.8534 43.7062 43.8534Z" fill="#203A8F"/>
<path d="M85.0369 12.248V7.8H87.2289V19H85.0369V14.36H80.8769V19H78.6689V7.8H80.8769V12.248H85.0369ZM91.5175 14.376V16.888H96.2375V19H89.3095V7.8H96.1575V9.912H91.5175V12.296H95.7575V14.376H91.5175ZM102.242 13.24L106.546 19H104.002L100.002 13.752V19H97.7939V7.8H100.002V12.744L103.842 7.8H106.386L102.242 13.24ZM107.638 7.8H111.814C112.88 7.8 113.787 8.16267 114.534 8.888C115.27 9.61333 115.638 10.504 115.638 11.56C115.638 12.616 115.27 13.5067 114.534 14.232C113.787 14.9573 112.88 15.32 111.814 15.32H109.846V19H107.638V7.8ZM109.846 13.256H111.814C112.283 13.256 112.672 13.096 112.982 12.776C113.291 12.4453 113.446 12.04 113.446 11.56C113.446 11.0693 113.291 10.664 112.982 10.344C112.672 10.024 112.283 9.864 111.814 9.864H109.846V13.256ZM125.535 19H123.135L122.463 16.984H117.999L117.327 19H114.943L118.863 7.8H121.599L125.535 19ZM120.239 10.344L118.703 14.92H121.775L120.239 10.344ZM131.528 19.224C129.853 19.224 128.461 18.664 127.352 17.544C126.253 16.4347 125.704 15.0533 125.704 13.4C125.704 11.736 126.253 10.3547 127.352 9.256C128.461 8.136 129.853 7.576 131.528 7.576C132.541 7.576 133.474 7.816 134.328 8.296C135.192 8.76533 135.864 9.40533 136.344 10.216L134.44 11.32C134.162 10.8187 133.768 10.4293 133.256 10.152C132.744 9.864 132.168 9.72 131.528 9.72C130.44 9.72 129.56 10.0613 128.888 10.744C128.226 11.4373 127.896 12.3227 127.896 13.4C127.896 14.4667 128.226 15.3467 128.888 16.04C129.56 16.7227 130.44 17.064 131.528 17.064C132.168 17.064 132.744 16.9253 133.256 16.648C133.778 16.36 134.173 15.9707 134.44 15.48L136.344 16.584C135.864 17.3947 135.192 18.04 134.328 18.52C133.474 18.9893 132.541 19.224 131.528 19.224ZM147.015 17.544C145.884 18.664 144.508 19.224 142.887 19.224C141.265 19.224 139.889 18.664 138.759 17.544C137.639 16.4027 137.079 15.0213 137.079 13.4C137.079 11.768 137.639 10.392 138.759 9.272C139.889 8.14133 141.265 7.576 142.887 7.576C144.508 7.576 145.884 8.14133 147.015 9.272C148.145 10.392 148.711 11.768 148.711 13.4C148.711 15.032 148.145 16.4133 147.015 17.544ZM140.311 16.04C140.993 16.7227 141.852 17.064 142.887 17.064C143.921 17.064 144.78 16.7227 145.463 16.04C146.156 15.3467 146.503 14.4667 146.503 13.4C146.503 12.3333 146.156 11.4533 145.463 10.76C144.769 10.0667 143.911 9.72 142.887 9.72C141.863 9.72 141.004 10.0667 140.311 10.76C139.617 11.4533 139.271 12.3333 139.271 13.4C139.271 14.4667 139.617 15.3467 140.311 16.04ZM157.031 13.192C158.012 13.7573 158.503 14.6107 158.503 15.752C158.503 16.7013 158.167 17.48 157.495 18.088C156.823 18.696 155.996 19 155.015 19H150.263V7.8H154.679C155.628 7.8 156.433 8.09867 157.095 8.696C157.756 9.29333 158.087 10.0453 158.087 10.952C158.087 11.88 157.735 12.6267 157.031 13.192ZM154.679 9.864H152.471V12.328H154.679C155.02 12.328 155.303 12.2107 155.527 11.976C155.761 11.7413 155.879 11.448 155.879 11.096C155.879 10.744 155.767 10.4507 155.543 10.216C155.319 9.98133 155.031 9.864 154.679 9.864ZM152.471 16.936H155.015C155.388 16.936 155.697 16.8133 155.943 16.568C156.188 16.312 156.311 15.992 156.311 15.608C156.311 15.2347 156.188 14.9253 155.943 14.68C155.697 14.424 155.388 14.296 155.015 14.296H152.471V16.936ZM165.262 19.224C163.587 19.224 162.195 18.664 161.086 17.544C159.987 16.4347 159.438 15.0533 159.438 13.4C159.438 11.736 159.987 10.3547 161.086 9.256C162.195 8.136 163.587 7.576 165.262 7.576C166.275 7.576 167.209 7.816 168.062 8.296C168.926 8.76533 169.598 9.40533 170.078 10.216L168.174 11.32C167.897 10.8187 167.502 10.4293 166.99 10.152C166.478 9.864 165.902 9.72 165.262 9.72C164.174 9.72 163.294 10.0613 162.622 10.744C161.961 11.4373 161.63 12.3227 161.63 13.4C161.63 14.4667 161.961 15.3467 162.622 16.04C163.294 16.7227 164.174 17.064 165.262 17.064C165.902 17.064 166.478 16.9253 166.99 16.648C167.513 16.36 167.907 15.9707 168.174 15.48L170.078 16.584C169.598 17.3947 168.926 18.04 168.062 18.52C167.209 18.9893 166.275 19.224 165.262 19.224ZM175.883 13.24L180.187 19H177.643L173.643 13.752V19H171.435V7.8H173.643V12.744L177.483 7.8H180.027L175.883 13.24ZM189.966 19H187.758V12.168L182.958 19H181.278V7.8H183.486V14.648L188.286 7.8H189.966V19ZM198.7 6.776H194.06V4.984H198.7V6.776ZM200.732 19H198.524V12.168L193.724 19H192.044V7.8H194.252V14.648L199.052 7.8H200.732V19ZM85.4369 33.192C86.4182 33.7573 86.9089 34.6107 86.9089 35.752C86.9089 36.7013 86.5729 37.48 85.9009 38.088C85.2289 38.696 84.4022 39 83.4209 39H78.6689V27.8H83.0849C84.0342 27.8 84.8396 28.0987 85.5009 28.696C86.1622 29.2933 86.4929 30.0453 86.4929 30.952C86.4929 31.88 86.1409 32.6267 85.4369 33.192ZM83.0849 29.864H80.8769V32.328H83.0849C83.4262 32.328 83.7089 32.2107 83.9329 31.976C84.1676 31.7413 84.2849 31.448 84.2849 31.096C84.2849 30.744 84.1729 30.4507 83.9489 30.216C83.7249 29.9813 83.4369 29.864 83.0849 29.864ZM80.8769 36.936H83.4209C83.7942 36.936 84.1036 36.8133 84.3489 36.568C84.5942 36.312 84.7169 35.992 84.7169 35.608C84.7169 35.2347 84.5942 34.9253 84.3489 34.68C84.1036 34.424 83.7942 34.296 83.4209 34.296H80.8769V36.936ZM97.7804 37.544C96.6497 38.664 95.2737 39.224 93.6524 39.224C92.0311 39.224 90.6551 38.664 89.5244 37.544C88.4044 36.4027 87.8444 35.0213 87.8444 33.4C87.8444 31.768 88.4044 30.392 89.5244 29.272C90.6551 28.1413 92.0311 27.576 93.6524 27.576C95.2737 27.576 96.6497 28.1413 97.7804 29.272C98.9111 30.392 99.4764 31.768 99.4764 33.4C99.4764 35.032 98.9111 36.4133 97.7804 37.544ZM91.0764 36.04C91.7591 36.7227 92.6177 37.064 93.6524 37.064C94.6871 37.064 95.5457 36.7227 96.2284 36.04C96.9217 35.3467 97.2684 34.4667 97.2684 33.4C97.2684 32.3333 96.9217 31.4533 96.2284 30.76C95.5351 30.0667 94.6764 29.72 93.6524 29.72C92.6284 29.72 91.7697 30.0667 91.0764 30.76C90.3831 31.4533 90.0364 32.3333 90.0364 33.4C90.0364 34.4667 90.3831 35.3467 91.0764 36.04ZM109.136 27.8V36.888H110.336V41.144H108.128V39H101.936V41.144H99.7283V36.888H100.816C101.435 36.0347 101.744 34.7707 101.744 33.096V27.8H109.136ZM103.184 36.888H106.928V29.864H103.952V33.128C103.952 34.76 103.696 36.0133 103.184 36.888ZM121.062 37.544C119.931 38.664 118.555 39.224 116.934 39.224C115.312 39.224 113.936 38.664 112.806 37.544C111.686 36.4027 111.126 35.0213 111.126 33.4C111.126 31.768 111.686 30.392 112.806 29.272C113.936 28.1413 115.312 27.576 116.934 27.576C118.555 27.576 119.931 28.1413 121.062 29.272C122.192 30.392 122.758 31.768 122.758 33.4C122.758 35.032 122.192 36.4133 121.062 37.544ZM114.358 36.04C115.04 36.7227 115.899 37.064 116.934 37.064C117.968 37.064 118.827 36.7227 119.51 36.04C120.203 35.3467 120.55 34.4667 120.55 33.4C120.55 32.3333 120.203 31.4533 119.51 30.76C118.816 30.0667 117.958 29.72 116.934 29.72C115.91 29.72 115.051 30.0667 114.358 30.76C113.664 31.4533 113.318 32.3333 113.318 33.4C113.318 34.4667 113.664 35.3467 114.358 36.04ZM128.758 33.24L133.062 39H130.518L126.518 33.752V39H124.31V27.8H126.518V32.744L130.358 27.8H132.902L128.758 33.24ZM144.035 39H141.635L140.963 36.984H136.499L135.827 39H133.443L137.363 27.8H140.099L144.035 39ZM138.739 30.344L137.203 34.92H140.275L138.739 30.344ZM151.49 32.248V27.8H153.682V39H151.49V34.36H147.33V39H145.122V27.8H147.33V32.248H151.49ZM165.363 39H162.963L162.291 36.984H157.827L157.155 39H154.771L158.691 27.8H161.427L165.363 39ZM160.067 30.344L158.531 34.92H161.603L160.067 30.344ZM165.711 39V36.952C166.394 37.048 166.895 36.9093 167.215 36.536C167.535 36.152 167.695 35.448 167.695 34.424V27.8H175.311V39H173.119V29.912H169.887V34.36C169.887 36.2907 169.444 37.5973 168.559 38.28C167.802 38.8773 166.852 39.1173 165.711 39Z" fill="#05306A"/>
</svg>
