<svg width="35" height="35" viewBox="0 0 35 35" fill="none" xmlns="http://www.w3.org/2000/svg">
<path d="M16.3266 16.6221L14.7666 19.2655L16.5064 24.1693C16.5838 24.3875 16.857 24.4611 17.0341 24.3112L19.8365 21.9365L16.3266 16.6221Z" stroke="#203A8F" stroke-width="2" stroke-miterlimit="10" stroke-linecap="round" stroke-linejoin="round"/>
<path d="M23.3458 16.6221L24.9058 19.2655L23.166 24.1693C23.0886 24.3875 22.8154 24.4611 22.6383 24.3112L19.8359 21.9365L23.3458 16.6221Z" stroke="#203A8F" stroke-width="2" stroke-miterlimit="10" stroke-linecap="round" stroke-linejoin="round"/>
<path d="M20.1907 17.4312H19.533C16.1241 17.4312 13.3613 14.6769 13.3613 11.2803V6.97C13.3613 3.67275 16.0431 1 19.3514 1H20.3732C23.6816 1 26.3633 3.67275 26.3633 6.97V11.2803C26.3624 14.6769 23.5997 17.4312 20.1907 17.4312Z" stroke="#203A8F" stroke-width="2" stroke-miterlimit="10" stroke-linecap="round" stroke-linejoin="round"/>
<path d="M26.6962 7.56784L25.8462 8.29968C25.3638 8.71483 24.6936 8.82749 24.0964 8.60661C22.772 8.11605 21.3461 7.84905 19.8615 7.84905C18.3653 7.84905 16.9287 8.11961 15.5963 8.61725C14.9982 8.8408 14.3262 8.72814 13.8429 8.3121L12.9947 7.58204C12.4526 7.11544 12.587 6.24699 13.243 5.96136C15.2394 5.08937 17.4859 4.60059 19.8615 4.60059C22.2237 4.60059 24.4586 5.08493 26.4461 5.94716C27.103 6.23103 27.2383 7.10036 26.6962 7.56784Z" stroke="#203A8F" stroke-width="2" stroke-miterlimit="10" stroke-linecap="round" stroke-linejoin="round"/>
<path d="M19.8616 10.3799L19.2199 11.9952C19.1799 12.0955 19.2546 12.2046 19.3623 12.2046H20.6581" stroke="#203A8F" stroke-width="2" stroke-miterlimit="10" stroke-linecap="round" stroke-linejoin="round"/>
<path d="M11.6465 28.5889V34.0001M28.6813 28.5889V34.0001" stroke="#203A8F" stroke-width="2" stroke-miterlimit="10" stroke-linecap="round" stroke-linejoin="round"/>
<path d="M7.5722 15.7029V15.7037C7.5722 15.7037 8.25932 25.175 8.25932 25.2478C8.25932 26.6209 7.1423 27.7333 5.76538 27.7333C4.38757 27.7333 3.27054 26.6209 3.27054 25.2478C3.27054 25.175 3.95855 15.7037 3.95855 15.7037V15.7029C2.22294 14.9941 1 13.2936 1 11.3074C1 9.25384 2.3075 7.50542 4.13746 6.84277V10.8816L5.76538 11.8184L7.39329 10.8816V6.84277C9.22326 7.50542 10.5308 9.25384 10.5308 11.3074C10.5308 13.2936 9.30781 14.9941 7.5722 15.7029Z" stroke="#203A8F" stroke-width="2" stroke-miterlimit="10" stroke-linecap="round" stroke-linejoin="round"/>
<path d="M24.9063 19.2656H26.0865C29.4554 19.2656 32.3134 21.7335 32.7922 25.0573L33.9938 33.3914C34.0401 33.7125 33.79 33.9999 33.4651 33.9999H6.25777C5.93201 33.9999 5.6819 33.7125 5.72819 33.3914L6.56395 27.6023M8.04323 22.208C9.27151 20.4179 11.3347 19.2656 13.6372 19.2656H14.7667" stroke="#203A8F" stroke-width="2" stroke-miterlimit="10" stroke-linecap="round" stroke-linejoin="round"/>
</svg>
